<svg id="bc12a4c4-94ad-4cd9-90c2-cf77928db447" data-name="Layer 1" xmlns="http://www.w3.org/2000/svg" xmlns:xlink="http://www.w3.org/1999/xlink" width="288.26" height="80.9" viewBox="0 0 288.26 80.9">
  <defs>
    <clipPath id="bb5a40b5-0800-4aeb-a181-487852ae5bf8">
      <rect x="0.25" y="0.25" width="287.76" height="80.4" style="fill: none;stroke: #369;stroke-width: 0.5px"/>
    </clipPath>
  </defs>
  <g>
    <g style="clip-path: url(#bb5a40b5-0800-4aeb-a181-487852ae5bf8)">
      <rect x="0.18" y="0.63" width="288" height="80.13" style="fill: #369"/>
      <line x1="85.83" y1="29.46" x2="279.58" y2="29.46" style="fill: none;stroke: #fef9a5;stroke-linecap: round;stroke-linejoin: round;stroke-width: 0.72px"/>
      <line x1="0.01" y1="17.89" x2="100.05" y2="17.89" style="fill: none;stroke: #fefefe;stroke-linecap: round;stroke-linejoin: round;stroke-width: 0.72px"/>
      <line x1="23.3" y1="-0.23" x2="23.3" y2="80.89" style="fill: none;stroke: #fefefe;stroke-linecap: round;stroke-linejoin: round;stroke-width: 0.72px"/>
      <path d="M71.67-.23A51.67,51.67,0,0,1,23.3,69.47,51.18,51.18,0,0,1,0,63.91" style="fill: none;stroke: #39c;stroke-linecap: round;stroke-linejoin: round;stroke-width: 0.72px;fill-rule: evenodd"/>
      <path d="M69.46-.23a49.18,49.18,0,0,1,3.4,18.05A49.57,49.57,0,0,1,23.3,67.41,49.25,49.25,0,0,1,0,61.6" style="fill: none;stroke: #fff;stroke-linecap: round;stroke-linejoin: round;stroke-width: 0.72px;fill-rule: evenodd"/>
      <polyline points="30.62 -0.23 30.71 0.17 23.3 17.82 23.3 -0.23" style="fill: #fff;fill-rule: evenodd"/>
      <polyline points="23.3 -0.23 23.3 17.82 15.97 0.09 16.04 -0.23" style="fill: #096;fill-rule: evenodd"/>
      <polyline points="48.02 -0.23 41.09 10.56 23.3 17.82 41.41 -0.23" style="fill: #fff;fill-rule: evenodd"/>
      <polyline points="41.41 -0.23 23.3 17.82 30.78 0.09 31.28 -0.23" style="fill: #39c;fill-rule: evenodd"/>
      <polygon points="74.85 17.89 41.02 25.23 23.3 17.82 74.85 17.89" style="fill: #fff;fill-rule: evenodd"/>
      <polygon points="23.3 17.82 41.09 10.56 74.85 17.89 23.3 17.82" style="fill: #096;fill-rule: evenodd"/>
      <polygon points="59.65 54.34 30.55 35.62 23.3 17.82 59.65 54.34" style="fill: #fff;fill-rule: evenodd"/>
      <polygon points="23.3 17.82 41.09 25.31 59.65 54.34 23.3 17.82" style="fill: #39c;fill-rule: evenodd"/>
      <polygon points="23.3 69.4 15.89 35.54 23.3 17.82 23.3 69.4" style="fill: #fff;fill-rule: evenodd"/>
      <polygon points="23.3 17.82 30.63 35.7 23.3 69.4 23.3 17.82" style="fill: #096;fill-rule: evenodd"/>
      <polyline points="0.01 33.72 5.58 25.15 23.3 17.82 0.01 40.97" style="fill: #fff;fill-rule: evenodd"/>
      <polyline points="0.01 40.97 23.3 17.82 15.89 35.62 0.01 45.74" style="fill: #39c;fill-rule: evenodd"/>
      <polyline points="0.01 17.82 23.3 17.82 5.51 25.15 0.01 23.96" style="fill: #096;fill-rule: evenodd"/>
      <polyline points="14.9 -0.23 15.28 0.01 22.53 17.82 4.57 -0.23" style="fill: #fff;fill-rule: evenodd"/>
      <polyline points="0.01 11.71 5.66 10.48 23.3 17.82 0.01 17.82" style="fill: #fff;fill-rule: evenodd"/>
      <line x1="0.01" y1="2.23" x2="-1.61" y2="-0.23" style="fill: #39c"/>
      <path d="M3.15-1.53C9,4.13,16,11.13,22,17.13c-8-5-20-6-23.74-16.2" style="fill: #39c;fill-rule: evenodd"/>
      <polyline points="47.85 -0.23 41.17 10.1 23.99 17.13 31.01 0.17 31.61 -0.23" style="fill: none;stroke: #39c;stroke-linecap: round;stroke-linejoin: round;stroke-width: 1.44px;fill-rule: evenodd"/>
      <polyline points="30.46 -0.23 30.48 -0.14 23.3 16.9 16.12 -0.06 16.16 -0.23" style="fill: none;stroke: #096;stroke-linecap: round;stroke-linejoin: round;stroke-width: 1.44px;fill-rule: evenodd"/>
      <line x1="0.01" y1="1.93" x2="-1.43" y2="-0.23" style="fill: none;stroke: #39c;stroke-linecap: round;stroke-linejoin: round;stroke-width: 1.44px"/>
      <polyline points="14.71 -0.23 15.43 0.24 22.61 17.21 5.51 10.18 0.01 1.93" style="fill: none;stroke: #39c;stroke-linecap: round;stroke-linejoin: round;stroke-width: 1.44px;fill-rule: evenodd"/>
      <polyline points="0.01 11.96 5.2 10.86 22.31 17.82 5.43 25 0.01 23.85" style="fill: none;stroke: #096;stroke-linecap: round;stroke-linejoin: round;stroke-width: 1.44px;fill-rule: evenodd"/>
      <polyline points="0.01 34.18 5.66 25.69 22.53 18.5 15.59 35.7 0.01 45.76" style="fill: none;stroke: #39c;stroke-linecap: round;stroke-linejoin: round;stroke-width: 1.44px;fill-rule: evenodd"/>
      <polygon points="23.22 69.4 16.27 35.93 23.3 18.81 30.32 35.93 23.22 69.4" style="fill: none;stroke: #096;stroke-linecap: round;stroke-linejoin: round;stroke-width: 1.44px;fill-rule: evenodd"/>
      <polygon points="60.03 54.65 31.09 35.62 24.06 18.66 41.17 25.69 60.03 54.65" style="fill: none;stroke: #39c;stroke-linecap: round;stroke-linejoin: round;stroke-width: 1.44px;fill-rule: evenodd"/>
      <polygon points="74.85 17.89 41.4 25 24.21 17.89 41.4 10.79 74.85 17.89" style="fill: none;stroke: #096;stroke-linecap: round;stroke-linejoin: round;stroke-width: 1.44px;fill-rule: evenodd"/>
      <line x1="85.83" y1="52.3" x2="279.58" y2="52.3" style="fill: none;stroke: #fef9a5;stroke-linecap: round;stroke-linejoin: round;stroke-width: 0.72px"/>
      <g>
        <polygon points="135.42 65.08 138.48 65.08 138.48 63.66 135.42 63.66 135.42 60.11 138.48 60.11 138.48 58.69 133.29 58.69 133.29 71.47 133.49 71.47 133.83 71.47 134.61 71.47 135.42 71.45 135.42 65.08" style="fill: #fefefe;fill-rule: evenodd"/>
        <path d="M143.21,67.56a12.06,12.06,0,0,1-.11,1.84c-.08.44-.28.65-.61.65a.57.57,0,0,1-.59-.5,7.46,7.46,0,0,1-.11-1.45V65a6.63,6.63,0,0,1,.14-1.5c.08-.38.28-.58.57-.58a.56.56,0,0,1,.58.5,5.72,5.72,0,0,1,.13,1.43v2.68Zm-3.54-.35a7.18,7.18,0,0,0,.56,3.16,2.32,2.32,0,0,0,2.28,1.1,2.67,2.67,0,0,0,2.11-.81c.47-.53.71-1.69.71-3.45V65.79a7.37,7.37,0,0,0-.53-3.2,2.29,2.29,0,0,0-2.29-1.06,2.35,2.35,0,0,0-2.3,1.08,7.14,7.14,0,0,0-.54,3.18Z" style="fill: #fefefe;fill-rule: evenodd"/>
        <path d="M146.75,61.53V68.3c0,.3,0,.59,0,.88s.06.56.1.77a1.87,1.87,0,0,0,.71,1.12,2.06,2.06,0,0,0,1.16.4,1.29,1.29,0,0,0,.89-.38,2,2,0,0,0,.65-1v1.42h2.13V61.53h-2.13v6.39a11.81,11.81,0,0,1-.06,1.21c0,.39-.12.64-.26.75a.65.65,0,0,1-.43.17.56.56,0,0,1-.38-.16,1.14,1.14,0,0,1-.23-.61,8.32,8.32,0,0,1-.05-1.08V61.53Z" style="fill: #fefefe;fill-rule: evenodd"/>
        <path d="M156,63h1.83V61.53H157a1,1,0,0,0-.78.24,2.16,2.16,0,0,0-.29.95V61.53h-2.12v9.94H156Z" style="fill: #fefefe;fill-rule: evenodd"/>
        <path d="M168.22,60.8a3.37,3.37,0,0,0-1.34-1.6,3.56,3.56,0,0,0-1.8-.51,4,4,0,0,0-1.74.44,3,3,0,0,0-1.29,1.2,3.09,3.09,0,0,0-.42,1.55,3.67,3.67,0,0,0,.51,2.15,8.35,8.35,0,0,0,2.07,1.77l.66.45c.66.48,1.11.83,1.35,1a1.5,1.5,0,0,1,.37,1.16,2.08,2.08,0,0,1-.16.8,1.35,1.35,0,0,1-.45.59,1.13,1.13,0,0,1-.67.21,1.53,1.53,0,0,1-.84-.28,1.4,1.4,0,0,1-.55-1,5.17,5.17,0,0,1-.12-.74,3.24,3.24,0,0,1-.05-.58h-2.12a6,6,0,0,0,.34,2.07,2.28,2.28,0,0,0,1,1.31,4.9,4.9,0,0,0,1.23.49,5.93,5.93,0,0,0,1.13.11,3.83,3.83,0,0,0,1.76-.41,2.61,2.61,0,0,0,1.19-1.24,4,4,0,0,0-.18-3.86,9.42,9.42,0,0,0-2.2-1.9l-.63-.42a4.63,4.63,0,0,1-1.19-1,1.59,1.59,0,0,1-.35-1.06,1.85,1.85,0,0,1,.16-.76,1.42,1.42,0,0,1,.47-.53,1.1,1.1,0,0,1,.6-.2.84.84,0,0,1,.34.08,2.11,2.11,0,0,1,.41.24,1.77,1.77,0,0,1,.63,1,3.78,3.78,0,0,1,.18.72c0,.23.05.48.05.75h2.12A5.09,5.09,0,0,0,168.22,60.8Z" style="fill: #fefefe;fill-rule: evenodd"/>
        <path d="M170.13,61.53h-.93V63h.93v5.88a6,6,0,0,0,0,.75c0,.25.08.45.12.61a5.68,5.68,0,0,0,.61,1.28h2a6.42,6.42,0,0,1-.57-1.4,8.3,8.3,0,0,1-.12-1.61V63h1.19V61.53h-1.19V59.4h-2.12Z" style="fill: #fefefe;fill-rule: evenodd"/>
        <path d="M177.92,66.43v1.49a8.88,8.88,0,0,1-.08,1.21,1.13,1.13,0,0,1-.3.73.59.59,0,0,1-.38.19.49.49,0,0,1-.36-.15.75.75,0,0,1-.23-.37,2.67,2.67,0,0,1-.07-.65v-.13a1.71,1.71,0,0,1,.18-.82,6.66,6.66,0,0,1,.89-1.09Zm2.13,3.37V65.06a8.75,8.75,0,0,0-.19-1.87A2,2,0,0,0,179.2,62a2.56,2.56,0,0,0-.87-.42,4.49,4.49,0,0,0-.92-.09l-.87.07-.47.12-.41.15a1.71,1.71,0,0,0-.79.84,6.92,6.92,0,0,0-.49,2.1h2.12a4.21,4.21,0,0,1,.14-1.21.91.91,0,0,1,.33-.54.65.65,0,0,1,.3-.11.52.52,0,0,1,.37.19.93.93,0,0,1,.22.4,2.15,2.15,0,0,1,.06.55.94.94,0,0,1-.46.8l-1.18.68a7.37,7.37,0,0,0-.65.41,3.12,3.12,0,0,0-.51.4,2,2,0,0,0-.61,1.07,5.67,5.67,0,0,0-.13,1.18,4.39,4.39,0,0,0,.13,1.11,2.93,2.93,0,0,0,.44,1,1.5,1.5,0,0,0,.75.61,2.79,2.79,0,0,0,1,.15,1.14,1.14,0,0,0,.87-.32,4,4,0,0,0,.65-1.1l.15.84.13.58h2.08A2.56,2.56,0,0,1,180.05,69.8Z" style="fill: #fefefe;fill-rule: evenodd"/>
        <path d="M184.3,63h1.82V61.53h-.75a1,1,0,0,0-.79.24,2.05,2.05,0,0,0-.28.95V61.53h-2.13v9.94h2.13Z" style="fill: #fefefe;fill-rule: evenodd"/>
        <path d="M197.75,62l-.23-.74a2.25,2.25,0,0,0-.57-1.53,3.19,3.19,0,0,0-1.29-.85,3.48,3.48,0,0,0-.73-.17,4.23,4.23,0,0,0-.73-.06,5.91,5.91,0,0,0-1.22.14,4.24,4.24,0,0,0-1.25.64,2.12,2.12,0,0,0-.87,1.26,9,9,0,0,0-.19,2.1v4.78a4.54,4.54,0,0,0,.44,2.26,3,3,0,0,0,1.21,1.19,4,4,0,0,0,1.88.41,5.8,5.8,0,0,0,1.11-.11,5.48,5.48,0,0,0,1.23-.48,1.91,1.91,0,0,0,.94-1,6.2,6.2,0,0,0,.21-1,9.77,9.77,0,0,0,.06-1.13v-.51h-2.12V68a7.3,7.3,0,0,1-.09,1,1.18,1.18,0,0,1-.72.91l-.27.08h-.25a1.45,1.45,0,0,1-.94-.32,1.41,1.41,0,0,1-.49-.92,11.74,11.74,0,0,1-.07-1.41v-5a5.27,5.27,0,0,1,.12-1.24,1.34,1.34,0,0,1,.45-.81,1.27,1.27,0,0,1,.83-.27,1.39,1.39,0,0,1,.78.27,1.13,1.13,0,0,1,.48.79c.06.36.11,1,.17,1.93h2.12Z" style="fill: #fefefe;fill-rule: evenodd"/>
        <path d="M204.84,71.46V64.28a5.55,5.55,0,0,0-.19-1.51,1.21,1.21,0,0,0-.59-.82,2.6,2.6,0,0,0-.56-.23l-.32-.08h-.31l-.51.06a1.46,1.46,0,0,0-.51.23,2,2,0,0,0-.55.68V58.69h-2.13V71.47h2.13v-6.3a8.77,8.77,0,0,1,.06-1.1,1.2,1.2,0,0,1,.28-.67.58.58,0,0,1,.4-.17.8.8,0,0,1,.39.15.72.72,0,0,1,.24.49q0,.32,0,.54c0,.16,0,.29,0,.43v6.63Z" style="fill: #fefefe;fill-rule: evenodd"/>
        <path d="M209.09,66.43v1.49a8.88,8.88,0,0,1-.08,1.21,1.13,1.13,0,0,1-.3.73.59.59,0,0,1-.38.19.49.49,0,0,1-.36-.15.75.75,0,0,1-.23-.37,2.25,2.25,0,0,1-.07-.65v-.13a1.71,1.71,0,0,1,.18-.82,7,7,0,0,1,.88-1.09Zm2.12,3.37V65.06a8.79,8.79,0,0,0-.18-1.87,2,2,0,0,0-.66-1.15,2.56,2.56,0,0,0-.87-.42,4.49,4.49,0,0,0-.92-.09l-.87.07-.47.12a3.39,3.39,0,0,0-.41.15,1.77,1.77,0,0,0-.8.84,7,7,0,0,0-.48,2.1h2.12a4.21,4.21,0,0,1,.14-1.21.87.87,0,0,1,.33-.54.65.65,0,0,1,.3-.11.52.52,0,0,1,.37.19.93.93,0,0,1,.22.4,2.15,2.15,0,0,1,.06.55,1,1,0,0,1-.47.8l-1.17.68a7.37,7.37,0,0,0-.65.41,3.12,3.12,0,0,0-.51.4,2,2,0,0,0-.61,1.07,5.67,5.67,0,0,0-.13,1.18,4.39,4.39,0,0,0,.13,1.11,2.93,2.93,0,0,0,.44,1,1.52,1.52,0,0,0,.74.61,2.89,2.89,0,0,0,1,.15,1.14,1.14,0,0,0,.87-.32,4,4,0,0,0,.65-1.1l.15.84.13.58h2.08A2.56,2.56,0,0,1,211.21,69.8Z" style="fill: #fefefe;fill-rule: evenodd"/>
        <path d="M215.46,63h1.83V61.53h-.75a1,1,0,0,0-.79.24,2.16,2.16,0,0,0-.29.95V61.53h-2.12v9.94h2.12Z" style="fill: #fefefe;fill-rule: evenodd"/>
        <path d="M218.6,58.91a.62.62,0,0,0-.3.5.58.58,0,0,0,.3.5,1.41,1.41,0,0,0,.78.2,1.34,1.34,0,0,0,.76-.2.63.63,0,0,0,.28-.52.56.56,0,0,0-.32-.49,1.4,1.4,0,0,0-.75-.21A1.28,1.28,0,0,0,218.6,58.91Zm-.3,12.56h2.12V60.82H218.3Z" style="fill: #fefefe;fill-rule: evenodd"/>
        <path d="M221.84,61.53h-.93V63h.93v5.88a6,6,0,0,0,0,.75,4.5,4.5,0,0,0,.13.61,5.22,5.22,0,0,0,.6,1.28h2a6.31,6.31,0,0,1-.56-1.4,7.57,7.57,0,0,1-.12-1.61V63h1.18V61.53H224V59.4h-2.13Z" style="fill: #fefefe;fill-rule: evenodd"/>
        <path d="M226.39,61.53l1.91,8.94.11.53a1.46,1.46,0,0,1,.08.43.72.72,0,0,1-.24.57.92.92,0,0,1-.49.18H226.7V73.6a7.42,7.42,0,0,0,2.4-.29,2.21,2.21,0,0,0,1.14-1.57l1.89-10.21-1.79-.08-.93,4.09-.86-4.08Z" style="fill: #fefefe;fill-rule: evenodd"/>
      </g>
      <polygon points="160.74 13.58 155.78 17.2 157.7 23.03 152.73 19.44 147.77 23.03 149.68 17.2 144.72 13.58 150.85 13.58 152.73 7.75 154.61 13.58 160.74 13.58" style="fill: #ff0;stroke: #ff0;stroke-linecap: round;stroke-linejoin: round;stroke-width: 0.72px;fill-rule: evenodd"/>
      <polygon points="180.78 13.58 175.81 17.2 177.73 23.03 172.76 19.44 167.8 23.03 169.72 17.2 164.75 13.58 170.89 13.58 172.76 7.75 174.64 13.58 180.78 13.58" style="fill: #ff0;stroke: #ff0;stroke-linecap: round;stroke-linejoin: round;stroke-width: 0.72px;fill-rule: evenodd"/>
      <polygon points="201.45 13.58 196.49 17.2 198.36 23.03 193.4 19.44 188.47 23.03 190.35 17.2 185.39 13.58 191.52 13.58 193.4 7.75 195.32 13.58 201.45 13.58" style="fill: #ff0;stroke: #ff0;stroke-linecap: round;stroke-linejoin: round;stroke-width: 0.72px;fill-rule: evenodd"/>
      <polygon points="221.38 13.58 216.45 17.2 218.33 23.03 213.36 19.44 208.4 23.03 210.31 17.2 205.35 13.58 211.48 13.58 213.36 7.75 215.28 13.58 221.38 13.58" style="fill: #ff0;stroke: #ff0;stroke-linecap: round;stroke-linejoin: round;stroke-width: 0.72px;fill-rule: evenodd"/>
      <g>
        <path d="M98.74,37l-.21-.83a2.18,2.18,0,0,0-.87-1.73,4.75,4.75,0,0,0-1.91-.94,7.72,7.72,0,0,0-1.09-.21c-.35,0-.73-.06-1.11-.06a9.35,9.35,0,0,0-1.81.17,6.28,6.28,0,0,0-1.89.75,2.51,2.51,0,0,0-1.3,1.48,8.45,8.45,0,0,0-.29,2.45v5.6a4.5,4.5,0,0,0,.66,2.66,4.28,4.28,0,0,0,1.79,1.39,7.07,7.07,0,0,0,2.78.48A7.3,7.3,0,0,0,95.13,48a7.12,7.12,0,0,0,1.81-.74,2.92,2.92,0,0,0,1.39-1.59,5,5,0,0,0,.31-1.14,9.29,9.29,0,0,0,.1-1.35v-.62H96.12v.94A6.56,6.56,0,0,1,96,44.75c-.12.49-.56.86-1.33,1.09l-.51.09h-.46a4.24,4.24,0,0,1-1.73-.33,1.45,1.45,0,0,1-.9-1,6.43,6.43,0,0,1-.15-1.48V37.9a3.64,3.64,0,0,1,.23-1.31,1.54,1.54,0,0,1,.84-.86,3.64,3.64,0,0,1,1.53-.28,4.28,4.28,0,0,1,1.44.25,1.25,1.25,0,0,1,.88.72,10.37,10.37,0,0,1,.32,1.74h2.62Z" style="fill: #fff;fill-rule: evenodd"/>
        <polygon points="101.1 48.18 103.72 48.18 103.72 41.44 108.58 41.44 108.58 48.18 111.2 48.18 111.2 33.2 108.58 33.2 108.58 39.19 103.72 39.19 103.72 33.2 101.1 33.2 101.1 48.18" style="fill: #fff;fill-rule: evenodd"/>
        <path d="M118.73,35.46l1.54,6.74h-3Zm-5.36,12.72,2.69,0,.78-3.74,3.61,0,.93,3.74h2.93l-3.41-15h-4.4Z" style="fill: #fff;fill-rule: evenodd"/>
        <path d="M129.38,35.45h.9a9.47,9.47,0,0,1,1,.06c.37,0,.7.08,1,.13a2.68,2.68,0,0,1,1.47.72,2.07,2.07,0,0,1,.48,1.46,1.81,1.81,0,0,1-.34,1.13,2.51,2.51,0,0,1-.87.79,2.54,2.54,0,0,1-1.08.2h-2.58ZM133.46,43a4.45,4.45,0,0,1,.41,2v1.67a5.09,5.09,0,0,0,.07.8c0,.32.07.56.11.73h2.81a4,4,0,0,1-.37-1.69V44.82a6.69,6.69,0,0,0-.28-2.16,3.35,3.35,0,0,0-1.15-1.49,2.16,2.16,0,0,0,.45-.38l.51-.6a3.7,3.7,0,0,0,.59-1,3.79,3.79,0,0,0,.25-1.38,5.76,5.76,0,0,0,0-.75c0-.21-.09-.45-.16-.7a4.22,4.22,0,0,0-.31-.78,5,5,0,0,0-.51-.82,3.22,3.22,0,0,0-2.07-1.22,18.67,18.67,0,0,0-3.7-.3h-3.3v15h2.61v-6H132A1.52,1.52,0,0,1,133.46,43Z" style="fill: #fff;fill-rule: evenodd"/>
        <rect x="139.97" y="33.2" width="2.62" height="14.98" style="fill: #fff"/>
        <polygon points="148.69 35.45 148.69 48.18 151.31 48.18 151.31 35.45 154.68 35.45 154.68 33.2 145.33 33.2 145.33 35.45 148.69 35.45" style="fill: #fff;fill-rule: evenodd"/>
        <polygon points="161.15 42.88 161.15 48.18 163.77 48.18 163.77 42.88 168.26 33.2 165.19 33.2 162.47 39.63 159.76 33.2 156.66 33.2 161.15 42.88" style="fill: #fff;fill-rule: evenodd"/>
        <polygon points="184.42 48.13 187.57 48.18 187.57 33.2 184.95 33.2 184.95 43.33 179.98 33.2 176.72 33.2 176.72 48.18 179.34 48.18 179.34 37.98 184.42 48.13" style="fill: #fff;fill-rule: evenodd"/>
        <path d="M194.73,35.46l1.53,6.74h-3Zm-5.36,12.72,2.69,0,.77-3.74,3.62,0,.93,3.74h2.93l-3.41-15h-4.4Z" style="fill: #fff;fill-rule: evenodd"/>
        <polygon points="203.72 48.18 207.67 48.18 211.23 33.2 208.28 33.2 205.66 44.81 202.95 33.2 199.93 33.2 203.72 48.18" style="fill: #fff;fill-rule: evenodd"/>
        <rect x="213.35" y="33.2" width="2.62" height="14.98" style="fill: #fff"/>
        <path d="M226.93,42.89v.82a5.11,5.11,0,0,1-.15,1.14,1.15,1.15,0,0,1-.89.87,4.7,4.7,0,0,1-1.23.21,3.51,3.51,0,0,1-1.59-.34,1.46,1.46,0,0,1-.85-1,6.31,6.31,0,0,1-.15-1.5V38a3.92,3.92,0,0,1,.22-1.36,1.54,1.54,0,0,1,.8-.88,3.14,3.14,0,0,1,1.41-.28,3.79,3.79,0,0,1,1.35.25,1.36,1.36,0,0,1,.87.86,4.7,4.7,0,0,1,.21,1.51h2.88l-.05-1.24a2.6,2.6,0,0,0-.1-.6c-.07-.27-.18-.59-.32-1a2.72,2.72,0,0,0-2-1.59,10.24,10.24,0,0,0-2.63-.45c-.28,0-.59,0-.9.06l-.9.13a7.09,7.09,0,0,0-1.93.76,2.54,2.54,0,0,0-1.28,1.46,8.83,8.83,0,0,0-.28,2.44v5.6a5.44,5.44,0,0,0,.5,2.4,2.93,2.93,0,0,0,1.51,1.45,12.2,12.2,0,0,0,1.51.56,4.51,4.51,0,0,0,1.18.12l.92-.07a2.68,2.68,0,0,0,1.31-.49,3.59,3.59,0,0,0,1-.94l2.18,1.52V39.94h-5.23v2.25h2.61Z" style="fill: #fff;fill-rule: evenodd"/>
        <path d="M237.09,35.46l1.53,6.74h-3Zm-5.36,12.72,2.69,0,.77-3.74,3.62,0,.93,3.74h2.93l-3.42-15h-4.39Z" style="fill: #fff;fill-rule: evenodd"/>
        <polygon points="245.5 35.45 245.5 48.18 248.11 48.18 248.11 35.45 251.48 35.45 251.48 33.2 242.13 33.2 242.13 35.45 245.5 35.45" style="fill: #fff;fill-rule: evenodd"/>
        <path d="M261,43.57a2.48,2.48,0,0,1-.58,1.77,4,4,0,0,1-4.13,0,2.69,2.69,0,0,1-.53-1.79V37.81a2.57,2.57,0,0,1,.54-1.79,2.86,2.86,0,0,1,2.08-.57,2.8,2.8,0,0,1,2.07.59,2.47,2.47,0,0,1,.55,1.77Zm2.62-5.22a6,6,0,0,0-1.07-3.8c-.71-.9-2.1-1.35-4.16-1.35a6.43,6.43,0,0,0-3.87,1c-.92.69-1.38,2.06-1.38,4.12V43a6.17,6.17,0,0,0,1,3.78c.69.93,2.1,1.39,4.21,1.39s3.47-.46,4.17-1.37a6,6,0,0,0,1.06-3.8Z" style="fill: #fff;fill-rule: evenodd"/>
        <path d="M268.92,35.45h.89a9.79,9.79,0,0,1,1.05.06c.37,0,.69.08,1,.13a2.75,2.75,0,0,1,1.47.72,2.12,2.12,0,0,1,.47,1.46,1.81,1.81,0,0,1-.34,1.13,2.42,2.42,0,0,1-.87.79,2.49,2.49,0,0,1-1.07.2h-2.58ZM273,43a4.45,4.45,0,0,1,.41,2v1.67a6.43,6.43,0,0,0,.06.8c0,.32.08.56.11.73h2.82a4,4,0,0,1-.37-1.69V44.82a7,7,0,0,0-.28-2.16,3.43,3.43,0,0,0-1.15-1.49,2,2,0,0,0,.44-.38l.52-.6a3.7,3.7,0,0,0,.58-1,3.8,3.8,0,0,0,.26-1.38,5.66,5.66,0,0,0,0-.75,5.55,5.55,0,0,0-.15-.7,4.22,4.22,0,0,0-.31-.78,6.81,6.81,0,0,0-.51-.82,3.27,3.27,0,0,0-2.08-1.22,18.49,18.49,0,0,0-3.69-.3H266.3v15h2.62v-6h2.57A1.53,1.53,0,0,1,273,43Z" style="fill: #fff;fill-rule: evenodd"/>
      </g>
    </g>
    <rect x="0.25" y="0.25" width="287.76" height="80.4" style="fill: none;stroke: #369;stroke-width: 0.5px"/>
  </g>
</svg>
